<?xml version="1.0" encoding="UTF-8"?><!DOCTYPE svg PUBLIC "-//W3C//DTD SVG 1.1//EN" "http://www.w3.org/Graphics/SVG/1.1/DTD/svg11.dtd"><svg xmlns="http://www.w3.org/2000/svg" xmlns:xlink="http://www.w3.org/1999/xlink"><symbol id="icon-circle" viewBox="0 0 52 52">
    <path d="M45.145 43.538l-2.08-1.89c1.75-1.939 3.168-4.066 4.16-6.335l2.6 1.134c-1.134 2.553-2.694 4.917-4.68 7.091zM52 26C52 11.676 40.324 0 26 0c-1.938 0-3.83.19-5.625.615l.614 2.789A22.008 22.008 0 0 1 26 2.836c12.764 0 23.164 10.4 23.164 23.164 0 1.182-.095 2.316-.284 3.356l2.79.473c.236-1.182.33-2.505.33-3.829zM8.13 11.204L5.91 9.407c-.71.899-1.277 1.655-1.797 2.459l2.363 1.56c.52-.71 1.04-1.419 1.655-2.222zm25.48 39.661l-.85-2.694c-2.174.662-4.444 1.04-6.76 1.04C13.236 49.164 2.836 38.764 2.836 26c0-2.364.331-4.68 1.04-6.902l-2.694-.85C.378 20.752 0 23.352 0 26c0 14.324 11.676 26 26 26 2.6 0 5.153-.378 7.61-1.135zM26 9.785c2.884 0 5.673.757 8.13 2.175l1.42-2.458A19.251 19.251 0 0 0 26 6.949C15.505 6.95 6.95 15.505 6.95 26h2.835c0-8.934 7.28-16.215 16.215-16.215zM14.75 37.676a13.267 13.267 0 0 1-2.128-2.552l-2.411 1.512a17.522 17.522 0 0 0 2.6 3.12l1.938-2.08zM45.05 26h-2.835c0 8.934-7.28 16.215-16.215 16.215-2.884 0-5.673-.757-8.13-2.175l-1.42 2.458A19.252 19.252 0 0 0 26 45.051c10.495 0 19.05-8.556 19.05-19.051zm-3.26-10.636c-.663-1.088-1.56-2.128-2.554-3.12l-1.938 2.08c.851.803 1.56 1.654 2.127 2.552l2.364-1.512zm-6.572 15.978V20.658L26 15.27l-9.218 5.39v10.73L26 36.731l9.218-5.39zm-15.6-9.076L26 18.578l6.382 3.735v7.422L26 33.422l-6.382-3.735v-7.422z"/>
</symbol><symbol id="icon-facebook" viewBox="0 0 10 19">
    <title>
        facebook
    </title>
    <path d="M9.766.157v2.946H8.014c-.64 0-1.071.134-1.295.402-.223.268-.335.67-.335 1.205v2.11h3.27l-.435 3.303H6.384v8.471H2.97v-8.47H.123V6.82H2.97V4.387c0-1.384.387-2.457 1.161-3.22C4.904.404 5.934.023 7.222.023c1.093 0 1.941.045 2.544.134z" fill-rule="evenodd"/>
</symbol><symbol id="icon-graph" viewBox="0 0 52 52">
    <path d="M2.834 43.12H0V29.803h11.996v2.834H2.834V43.12zm10.58-7.84h-2.835v13.886H1.417V52h11.996V35.28zM32.068 0H18.656v32.352h2.834V2.834h7.745v46.332h-9.162V52h11.996V0zm-10.58 35.28h-2.833v3.118h2.834V35.28zm29.755 7.227H48.41v6.66h-7.745v-2.598H37.83V52h13.413v-9.493zm-10.58-22.529h7.746v16.153h2.834V17.144H37.831v25.977h2.834V19.978z"/>
</symbol><symbol id="icon-search" viewBox="0 0 54 52">
    <path d="M44.836 40.871l9.016-10.692-9.41-25.465L17.49 0 0 20.751l9.46 25.417 26.901 4.763 6.603-7.825L51.93 52 54 49.959l-9.164-9.088zm-2.07-2.09l-4.68-4.617c2.956-3.693 3.99-8.796 2.217-13.558l-2.76 1.02c2.12 5.735-.886 12.15-6.75 14.288-1.92.68-3.892.875-5.813.535l-.542 2.867a13.65 13.65 0 0 0 2.463.243c1.676 0 3.35-.292 4.927-.875a14.535 14.535 0 0 0 4.238-2.43l4.828 4.763-5.715 6.755-23.551-4.18L3.35 21.335 18.673 3.159l23.6 4.13 8.229 22.307-7.736 9.185zM22.37 35.622l-1.134 2.673c-.886-.34-1.724-.826-2.61-1.458l1.724-2.332c.69.486 1.33.826 2.02 1.117zm7.095-24.056l-.542 2.868c-1.922-.34-3.942-.146-5.814.534-5.864 2.139-8.869 8.553-6.75 14.337l-2.76 1.02c-2.759-7.29 1.084-15.405 8.475-18.078 2.414-.875 4.927-1.118 7.39-.68zm5.813 2.479l-1.773 2.381c-.69-.486-1.33-.875-2.02-1.166l1.133-2.673c.936.34 1.774.826 2.66 1.458z"/>
</symbol><symbol id="icon-smile" viewBox="0 0 52 52">
    <path d="M25.268 41.657c-2.645 0-5.243-.614-7.651-1.89-2.598-1.37-4.818-3.353-6.376-5.856l2.408-1.511a13.536 13.536 0 0 0 5.243 4.817 13.853 13.853 0 0 0 10.532.945c3.542-1.087 6.376-3.495 8.077-6.801l2.503 1.322a16.479 16.479 0 0 1-9.777 8.17 15.81 15.81 0 0 1-4.96.804zm-6.046-23.993H16.39v3.117h2.834v-3.117zm14.122 0H30.51v3.117h2.834v-3.117zM9.918 43.026c-1.983-1.794-3.636-3.967-4.912-6.423l-2.503 1.322a25.65 25.65 0 0 0 5.479 7.18l1.936-2.079zm33.864 1.559a25.896 25.896 0 0 0 7.793-17.995l-2.834-.047c-.283 12.469-10.627 22.67-23.142 22.67-3.212 0-6.33-.66-9.305-1.936l-1.133 2.598c3.353 1.464 6.848 2.22 10.438 2.22 6.848-.095 13.318-2.74 18.183-7.51zm2.976-33.675a21.747 21.747 0 0 0-2.22-2.74l-2.031 1.984a20.342 20.342 0 0 1 1.936 2.362l2.315-1.606zm-7.274-6.848c-1.417-.898-2.598-1.512-3.826-1.984l-1.086 2.645c1.04.425 2.126.992 3.353 1.795l1.56-2.456zM25.646 2.834c2.03 0 4.014.236 5.903.755L32.258.85A25.908 25.908 0 0 0 25.646 0C12.846 0 2.078 9.115 0 21.631l2.787.473c1.889-11.147 11.476-19.27 22.859-19.27z"/>
</symbol></svg>